<?xml version="1.0" encoding="utf-8"?>
<!-- Generator: Adobe Illustrator 16.0.0, SVG Export Plug-In . SVG Version: 6.00 Build 0)  -->
<!DOCTYPE svg PUBLIC "-//W3C//DTD SVG 1.1//EN" "http://www.w3.org/Graphics/SVG/1.1/DTD/svg11.dtd">
<svg version="1.1" id="Layer_1" xmlns="http://www.w3.org/2000/svg" xmlns:xlink="http://www.w3.org/1999/xlink" x="0px" y="0px"
	 width="162px" height="35px" viewBox="0 0 162 35" enable-background="new 0 0 162 35" xml:space="preserve">
<g>
	<rect fill="#EC1C24" width="87.336" height="24.439"/>
	<g>
		<path fill="#FFFFFF" d="M16.611,18.764l-0.023-9.69l-4.753,7.983h-1.683L5.422,9.28v9.483H1.915V2.614h3.092l6.044,10.035
			l5.952-10.035h3.069l0.046,16.149H16.611z"/>
		<path fill="#FFFFFF" d="M34.674,11.679v7.084h-3.369v-1.547c-0.668,1.131-1.961,1.73-3.783,1.73c-2.907,0-4.637-1.615-4.637-3.759
			c0-2.192,1.545-3.715,5.329-3.715h2.861c0-1.546-0.923-2.445-2.861-2.445c-1.314,0-2.676,0.439-3.575,1.154l-1.292-2.516
			c1.361-0.968,3.369-1.498,5.353-1.498C32.482,6.167,34.674,7.92,34.674,11.679z M31.075,14.841v-1.268h-2.468
			c-1.684,0-2.215,0.623-2.215,1.452c0,0.901,0.762,1.5,2.03,1.5C29.622,16.525,30.66,15.972,31.075,14.841z"/>
		<path fill="#FFFFFF" d="M45.632,6.167v3.32c-0.3-0.021-0.531-0.046-0.808-0.046c-1.984,0-3.299,1.084-3.299,3.462v5.86h-3.6V6.351
			h3.438v1.638C42.24,6.79,43.717,6.167,45.632,6.167z"/>
		<path fill="#FFFFFF" d="M53.106,13.895l-1.73,1.707v3.162h-3.6V1.645h3.6v9.69l5.26-4.984h4.291l-5.167,5.26l5.629,7.153h-4.361
			L53.106,13.895z"/>
		<path fill="#FFFFFF" d="M74.561,13.573h-9.389c0.346,1.544,1.662,2.491,3.553,2.491c1.315,0,2.261-0.393,3.115-1.199l1.915,2.077
			c-1.154,1.314-2.884,2.006-5.122,2.006c-4.291,0-7.083-2.7-7.083-6.39c0-3.713,2.838-6.39,6.622-6.39
			c3.646,0,6.46,2.445,6.46,6.436C74.631,12.881,74.584,13.271,74.561,13.573z M65.125,11.473h6.114
			c-0.254-1.569-1.431-2.583-3.046-2.583C66.555,8.89,65.379,9.88,65.125,11.473z"/>
		<path fill="#FFFFFF" d="M85.034,18.164c-0.737,0.53-1.822,0.783-2.93,0.783c-2.93,0-4.637-1.5-4.637-4.453V9.396h-1.915V6.628
			h1.915V3.604h3.599v3.024h3.091v2.767h-3.091v5.053c0,1.062,0.577,1.638,1.546,1.638c0.53,0,1.062-0.161,1.453-0.462
			L85.034,18.164z"/>
	</g>
	<path fill="#EC1C24" d="M100.915,8.058c0,3.391-2.445,5.422-6.507,5.422h-4.613v5.283h-1.177V2.614h5.79
		C98.47,2.614,100.915,4.644,100.915,8.058z M99.716,8.058c0-2.792-1.846-4.384-5.308-4.384h-4.613v8.745h4.613
		C97.87,12.419,99.716,10.827,99.716,8.058z"/>
	<path fill="#EC1C24" d="M104.882,2.614h1.177v15.088h9.298v1.062h-10.475V2.614z"/>
	<path fill="#EC1C24" d="M128.391,14.218h-9.367l-2.054,4.545h-1.269l7.43-16.149h1.176l7.428,16.149h-1.268L128.391,14.218z
		 M127.951,13.226l-4.244-9.32l-4.222,9.32H127.951z"/>
	<path fill="#EC1C24" d="M132.889,10.689c0-4.706,3.575-8.192,8.374-8.192c2.284,0,4.337,0.74,5.745,2.238l-0.739,0.763
		c-1.383-1.362-3.067-1.916-4.96-1.916c-4.13,0-7.244,3.046-7.244,7.107c0,4.06,3.114,7.105,7.244,7.105
		c1.893,0,3.577-0.577,4.96-1.938l0.739,0.761c-1.408,1.501-3.461,2.261-5.745,2.261C136.464,18.878,132.889,15.395,132.889,10.689z
		"/>
	<path fill="#EC1C24" d="M161.693,17.702v1.062h-11.143V2.614h10.797v1.06h-9.621v6.369h8.605v1.037h-8.605v6.623H161.693z"/>
	<g>
		<g>
			<path fill="#085989" d="M125.944,25.109v5.808h2.202v-2.646h3.916v-1.768h-3.916v-1.408c0-1.319,0.789-1.985,2.312-1.985
				c0.668,0,1.374,0.15,1.959,0.53l0.68-1.74c-0.707-0.435-1.7-0.667-2.787-0.667C127.562,21.233,125.944,22.663,125.944,25.109z"/>
			<path fill="#085989" d="M147.437,21.233c-2.61,0-4.065,1.578-4.065,4.474v5.21h2.176V28.28h4.052v2.637h2.202v-5.21
				C151.801,22.812,150.047,21.233,147.437,21.233z M149.599,26.512h-4.052v-1.007c0-1.619,0.557-2.395,1.876-2.395
				c1.306,0,2.176,0.775,2.176,2.395V26.512z"/>
			<path fill="#085989" d="M119.979,21.233c-2.611,0-4.065,1.578-4.065,4.474v5.21h2.175V28.28h4.052v2.637h2.203v-5.21
				C124.343,22.812,122.588,21.233,119.979,21.233z M122.14,26.512h-4.052v-1.007c0-1.619,0.557-2.395,1.877-2.395
				c1.305,0,2.175,0.775,2.175,2.395V26.512z"/>
			<path fill="#085989" d="M158.378,29.203c-1.729,0-2.958-1.251-2.958-3.046c0-1.796,1.229-3.047,2.958-3.047
				c0.924,0,1.629,0.38,2.249,1.115L162,22.92c-0.871-1.087-2.205-1.687-3.803-1.687c-2.879,0-5.018,2.055-5.018,4.924
				s2.139,4.921,5.005,4.921c1.61,0,2.944-0.598,3.815-1.699l-1.373-1.304C160.007,28.821,159.302,29.203,158.378,29.203z"/>
			<path fill="#085989" d="M142.057,24.702c0-1.937-1.307-3.201-3.444-3.421c-0.239-0.029-0.487-0.048-0.744-0.048
				c-2.61,0-4.064,1.578-4.065,4.47l0,0v0.004v0.314v4.896h2.203v-2.651h1.918h0.108l1.836,2.651h2.365l-2.135-3.062
				C141.336,27.327,142.057,26.13,142.057,24.702z M137.801,26.51h-1.795v-1.582c0.126-1.234,0.688-1.876,1.826-1.885
				c1.325,0.009,1.995,0.619,1.995,1.659C139.827,25.734,139.147,26.51,137.801,26.51z"/>
		</g>
	</g>
	<g>
		<path fill="#085989" d="M5.614,31.3c3.101,0,5.614-2.512,5.614-5.613H0C0,28.788,2.514,31.3,5.614,31.3z"/>
		<path fill="#085989" d="M18.298,31.3c3.101,0,5.615-2.512,5.615-5.613H12.685C12.685,28.788,15.198,31.3,18.298,31.3z"/>
		<path fill="#085989" d="M30.983,31.3c3.101,0,5.615-2.512,5.615-5.613H25.369C25.369,28.788,27.883,31.3,30.983,31.3z"/>
		<path fill="#085989" d="M43.667,31.3c3.101,0,5.615-2.512,5.615-5.613H38.054C38.054,28.788,40.567,31.3,43.667,31.3z"/>
		<path fill="#085989" d="M56.353,31.3c3.1,0,5.614-2.512,5.614-5.613H50.738C50.738,28.788,53.252,31.3,56.353,31.3z"/>
		<path fill="#085989" d="M69.038,31.3c3.1,0,5.614-2.512,5.614-5.613H63.423C63.423,28.788,65.937,31.3,69.038,31.3z"/>
		<path fill="#085989" d="M81.722,31.3c3.101,0,5.614-2.512,5.614-5.613H76.108C76.108,28.788,78.621,31.3,81.722,31.3z"/>
	</g>
</g>
</svg>
